<?xml version="1.0" standalone="no"?>
<!DOCTYPE svg PUBLIC "-//W3C//DTD SVG 20010904//EN"
 "http://www.w3.org/TR/2001/REC-SVG-20010904/DTD/svg10.dtd">
<svg version="1.0" xmlns="http://www.w3.org/2000/svg"
 width="1119.000000pt" height="1280.000000pt" viewBox="0 0 1119.000000 1280.000000"
 preserveAspectRatio="xMidYMid meet">
<g transform="translate(0.000000,1280.000000) scale(0.100000,-0.100000)"
fill="#000000" stroke="none">
<path d="M10755 12467 c-1307 -969 -2202 -1697 -3065 -2491 -227 -209 -921
-900 -1131 -1126 -1354 -1457 -2487 -3104 -3554 -5163 -54 -106 -102 -186
-108 -184 -15 4 -120 176 -297 482 -291 503 -507 786 -836 1091 -184 171 -451
394 -470 394 -10 -1 -1264 -1880 -1264 -1895 0 -5 28 -16 62 -23 364 -73 715
-346 1094 -852 231 -309 473 -699 944 -1525 441 -772 657 -1136 674 -1139 5 0
53 103 108 229 1567 3629 2957 6176 4516 8275 887 1194 1846 2294 3376 3873
142 147 257 269 255 272 -3 2 -140 -96 -304 -218z"/>
</g>
</svg>
